<svg width="14" height="16" viewBox="0 0 14 16" fill="none" xmlns="http://www.w3.org/2000/svg">
<rect width="14" height="16" fill="black"/>
<g id="2. Overview">
<path d="M-12082 -5260C-12082 -5261.1 -12081.1 -5262 -12080 -5262H6139C6140.11 -5262 6141 -5261.1 6141 -5260V1045C6141 1046.1 6140.11 1047 6139 1047H-12080C-12081.1 1047 -12082 1046.1 -12082 1045V-5260Z" fill="#191919"/>
<path d="M-12080 -5261H6139V-5263H-12080V-5261ZM6140 -5260V1045H6142V-5260H6140ZM6139 1046H-12080V1048H6139V1046ZM-12081 1045V-5260H-12083V1045H-12081ZM-12080 1046C-12080.6 1046 -12081 1045.55 -12081 1045H-12083C-12083 1046.66 -12081.7 1048 -12080 1048V1046ZM6140 1045C6140 1045.55 6139.55 1046 6139 1046V1048C6140.66 1048 6142 1046.66 6142 1045H6140ZM6139 -5261C6139.55 -5261 6140 -5260.55 6140 -5260H6142C6142 -5261.66 6140.66 -5263 6139 -5263V-5261ZM-12080 -5263C-12081.7 -5263 -12083 -5261.66 -12083 -5260H-12081C-12081 -5260.55 -12080.6 -5261 -12080 -5261V-5263Z" fill="white" fill-opacity="0.1"/>
<g id="Overview / Close" clip-path="url(#clip0_196_8299)">
<rect width="1440" height="2880" transform="translate(-402 -2272)" fill="#0B0B0B"/>
<g id="Layout">
<g id="Body">
<g id="Widget Layout">
<g id="Widget / 1 x 1">
<path d="M-174 -4C-174 -10.6274 -168.627 -16 -162 -16H31C37.6274 -16 43 -10.6274 43 -4V124C43 130.627 37.6274 136 31 136H-162C-168.627 136 -174 130.627 -174 124V-4Z" fill="#161616"/>
<g id="Container">
<g clip-path="url(#clip1_196_8299)">
<g id="Widget / Title / 1x1">
<g id="Icon">
<path id="Vector" d="M7.02733 -4H6.97267C0.360349 -4 -5 1.36035 -5 7.97267V8.02733C-5 14.6397 0.360349 20 6.97267 20H7.02733C13.6397 20 19 14.6397 19 8.02733V7.97267C19 1.36035 13.6397 -4 7.02733 -4Z" fill="black"/>
<g id="Group">
<path id="Vector_2" d="M13.0842 5.53155V7.79761C12.6881 7.75893 12.1735 7.66896 11.6043 7.46043C10.861 7.188 10.3077 6.81551 9.94533 6.5271V11.1071L9.93608 11.0928C9.94197 11.1837 9.94533 11.2761 9.94533 11.3695C9.94533 13.6439 8.09465 15.4955 5.81934 15.4955C3.54404 15.4955 1.69336 13.6439 1.69336 11.3695C1.69336 9.09502 3.54404 7.24265 5.81934 7.24265C6.04217 7.24265 6.26079 7.26031 6.47436 7.29479V9.52805C6.2692 9.4549 6.04889 9.41538 5.81934 9.41538C4.74223 9.41538 3.86524 10.2915 3.86524 11.3695C3.86524 12.4474 4.74223 13.3236 5.81934 13.3236C6.89646 13.3236 7.77345 12.4466 7.77345 11.3695C7.77345 11.3291 7.77261 11.2888 7.77009 11.2484V2.34814H10.0345C10.0429 2.53986 10.0504 2.73325 10.0588 2.92496C10.074 3.30249 10.2085 3.66489 10.4431 3.96171C10.7181 4.31066 11.1242 4.71594 11.6943 5.03966C12.2282 5.34236 12.7293 5.47185 13.0842 5.53323V5.53155Z" fill="#FF004F"/>
<path id="Vector_3" d="M12.3058 3.69193V5.95798C11.9098 5.9193 11.3952 5.82933 10.826 5.6208C10.0827 5.34837 9.5294 4.97588 9.167 4.68748V9.26751L9.15776 9.25322C9.16364 9.34403 9.167 9.43652 9.167 9.52985C9.167 11.8043 7.31633 13.6558 5.04102 13.6558C2.76572 13.6558 0.915039 11.8043 0.915039 9.52985C0.915039 7.25539 2.76572 5.40303 5.04102 5.40303C5.26385 5.40303 5.48246 5.42069 5.69603 5.45516V7.68842C5.49087 7.61527 5.27057 7.57575 5.04102 7.57575C3.96391 7.57575 3.08692 8.4519 3.08692 9.52985C3.08692 10.6078 3.96391 11.484 5.04102 11.484C6.11814 11.484 6.99513 10.607 6.99513 9.52985C6.99513 9.48949 6.99428 9.44913 6.99176 9.40877V0.506836H9.25613C9.26454 0.698547 9.27211 0.891939 9.28052 1.08365C9.29566 1.46119 9.43019 1.82359 9.66478 2.1204C9.93974 2.46935 10.3459 2.87463 10.9159 3.19835C11.4499 3.50021 11.951 3.63054 12.3058 3.69193Z" fill="#00F7EF"/>
<path id="Vector_4" d="M12.801 4.68243V6.94849C12.4049 6.90981 11.8903 6.81984 11.3211 6.61131C10.5778 6.33888 10.0245 5.96639 9.66213 5.67798V10.258L9.65288 10.2437C9.65876 10.3345 9.66213 10.427 9.66213 10.5204C9.66213 12.7948 7.81144 14.6463 5.53614 14.6463C3.26084 14.6463 1.41016 12.7948 1.41016 10.5204C1.41016 8.2459 3.26084 6.39353 5.53614 6.39353C5.75896 6.39353 5.97758 6.41119 6.19116 6.44567V8.67893C5.98599 8.60577 5.76569 8.56626 5.53614 8.56626C4.45903 8.56626 3.58204 9.44241 3.58204 10.5204C3.58204 11.5983 4.45903 12.4745 5.53614 12.4745C6.61325 12.4745 7.49024 11.5975 7.49024 10.5204C7.49024 10.48 7.48941 10.4396 7.48688 10.3993V1.49902H9.75126C9.75966 1.69073 9.76723 1.88413 9.77564 2.07584C9.79078 2.45337 9.92531 2.81577 10.1599 3.11259C10.4349 3.46154 10.841 3.86682 11.4111 4.19054C11.945 4.4924 12.4461 4.62273 12.801 4.68411V4.68243Z" fill="white"/>
</g>
</g>
</g>
</g>
</g>
</g>
</g>
</g>
</g>
</g>
</g>
<defs>
<clipPath id="clip0_196_8299">
<rect width="1440" height="2880" fill="white" transform="translate(-402 -2272)"/>
</clipPath>
<clipPath id="clip1_196_8299">
<path d="M-174 -4C-174 -10.6274 -168.627 -16 -162 -16H31C37.6274 -16 43 -10.6274 43 -4V124C43 130.627 37.6274 136 31 136H-162C-168.627 136 -174 130.627 -174 124V-4Z" fill="white"/>
</clipPath>
</defs>
</svg>
